<svg xmlns="http://www.w3.org/2000/svg" viewBox="0 0 32 32">
  <defs>
    <linearGradient id="bg" x1="0" y1="0" x2="1" y2="1">
      <stop offset="0%" stop-color="#d97706"/>
      <stop offset="100%" stop-color="#92400e"/>
    </linearGradient>
  </defs>
  <rect width="32" height="32" rx="7" fill="url(#bg)"/>
  <!-- Pan bowl -->
  <path d="M2 21 C2 27 7.5 31 16 31 C24.5 31 30 27 30 21" fill="rgba(255,255,255,0.85)"/>
  <!-- Pan rim -->
  <rect x="1" y="18.5" width="30" height="3" rx="1.5" fill="white"/>
  <!-- Handle -->
  <rect x="30" y="19" width="2" height="2" rx="1" fill="rgba(255,255,255,0.35)"/>
  <!-- Coin -->
  <circle cx="16" cy="10" r="8.5" fill="#fbbf24"/>
  <circle cx="16" cy="10" r="6" fill="none" stroke="#d97706" stroke-width="0.6" opacity="0.45"/>
  <!-- $ -->
  <path d="M14 7 C14 5.5 18 5.5 18 7.5 C18 9.5 14 9.5 14 12 C14 14.5 18 14.5 18 13" stroke="#92400e" stroke-width="1.4" fill="none" stroke-linecap="round"/>
  <line x1="16" y1="4.5" x2="16" y2="15.5" stroke="#92400e" stroke-width="0.6" opacity="0.5"/>
</svg>
